# xmcd
#
# Track frame offsets: 
#        150
#        22244
#        50284
#        70195
#        87904
#        108429
#        127489
#        145657
#        166501
#        182804
#        202786
#        237913
#
# Disc length: 3309 seconds
#
# Revision: 0
# Processed by: cddbd v1.5.2PL0 Copyright (c) Steve Scherf et al.
# Submitted via: ExactAudioCopy v0.99pb5
#
DISCID=a20ceb0c
DTITLE=Pat Coast - Don't Touch My Guitar
DYEAR=2003
DGENRE=Blues
TTITLE0=I Gotta Drive
TTITLE1=The Dangerous Kind
TTITLE2=Peace And Quiet
TTITLE3=Outside Looking In
TTITLE4=Don't Touch My Guitar
TTITLE5=You're Scarin' Me
TTITLE6=Don't You Play No Rhumba
TTITLE7=Lay Down This Love
TTITLE8=She's So Sharp
TTITLE9=Pro Zack Shuffle
TTITLE10=Trouble
TTITLE11=Pistol Slapper Blues
EXTD=
EXTT0=
EXTT1=
EXTT2=
EXTT3=
EXTT4=
EXTT5=
EXTT6=
EXTT7=
EXTT8=
EXTT9=
EXTT10=
EXTT11=
PLAYORDER=
